<?xml version="1.0" encoding="UTF-8" standalone="no"?>
<svg
   xmlns:dc="http://purl.org/dc/elements/1.1/"
   xmlns:cc="http://creativecommons.org/ns#"
   xmlns:rdf="http://www.w3.org/1999/02/22-rdf-syntax-ns#"
   xmlns:svg="http://www.w3.org/2000/svg"
   xmlns="http://www.w3.org/2000/svg"
   xmlns:sodipodi="http://sodipodi.sourceforge.net/DTD/sodipodi-0.dtd"
   xmlns:inkscape="http://www.inkscape.org/namespaces/inkscape"
   width="260"
   height="310"
   viewBox="0 0 260 310"
   version="1.1"
   id="svg855"
   sodipodi:docname="vulcan-logo.svg"
   inkscape:version="0.92.4 (5da689c313, 2019-01-14)"
   style="fill:none"
   inkscape:export-filename="C:\Users\Gerard\Pictures\vulcan-logo.png"
   inkscape:export-xdpi="93.855392"
   inkscape:export-ydpi="93.855392">
  <metadata
     id="metadata861">
    <rdf:RDF>
      <cc:Work
         rdf:about="">
        <dc:format>image/svg+xml</dc:format>
        <dc:type
           rdf:resource="http://purl.org/dc/dcmitype/StillImage" />
        <dc:title />
      </cc:Work>
    </rdf:RDF>
  </metadata>
  <defs
     id="defs859" />
  <sodipodi:namedview
     pagecolor="#ffffff"
     bordercolor="#666666"
     borderopacity="1"
     objecttolerance="10"
     gridtolerance="10"
     guidetolerance="10"
     inkscape:pageopacity="0"
     inkscape:pageshadow="2"
     inkscape:window-width="2560"
     inkscape:window-height="1377"
     id="namedview857"
     showgrid="false"
     inkscape:zoom="4.4569156"
     inkscape:cx="160.31225"
     inkscape:cy="327.92437"
     inkscape:window-x="-8"
     inkscape:window-y="-8"
     inkscape:window-maximized="1"
     inkscape:current-layer="svg855" />
  <path
     d="m 130.27842,305.49419 c -1.67653,-0.0207 -3.33233,-0.36429 -4.87845,-1.01005 C 87.392517,289.74118 57.717946,267.52533 36.783177,238.44302 6.4988551,196.23218 6.0923528,154.83062 6.0923528,153.21413 V 71.82352 c 0.021319,-1.600447 0.3669697,-3.180301 1.016256,-4.645076 0.766021,-2.06542 2.0423431,-3.906169 3.7116112,-5.353142 1.669267,-1.446975 3.677873,-2.453606 5.841194,-2.927376 18.902257,-4.241161 67.275832,-17.772682 104.673546,-50.2886284 2.51993,-2.0652141 5.67736,-3.2061736 8.94346,-3.2314247 3.20504,0.020698 6.30037,1.1657966 8.73959,3.2314247 37.60147,32.5159464 85.97504,46.0474674 104.8772,50.2886284 2.12047,0.502953 4.09192,1.496338 5.75188,2.900364 1.66099,1.404028 2.96287,3.178336 3.80113,5.178145 0.62714,1.542494 0.97175,3.184131 1.01626,4.847085 v 81.39061 c 0,1.61649 -0.40672,43.01805 -30.8944,85.22889 -20.73078,29.08231 -50.40608,51.29816 -88.41322,66.04112 -1.55233,0.623 -3.20504,0.96554 -4.87844,1.01005 z"
     id="path839"
     inkscape:connector-curvature="0"
     style="fill:#ffffff;stroke-width:10.34883881" />
  <path
     d="M 249.29006,67.470904 C 187.19703,92.308115 164.7742,136.4635 161.32493,155.43603 H 99.231898 C 78.534222,101.62207 31.964448,74.370163 11.266772,67.470904 L 16.44119,62.296484 57.836544,46.773226 94.057479,31.249968 109.58074,20.90113 125.10399,10.552292 h 10.34885 l 15.52326,10.348838 15.52324,10.348838 31.04652,15.523258 48.79146,13.968078 z"
     id="path843"
     inkscape:connector-curvature="0"
     style="fill:#24089a;stroke-width:10.34883881"
     sodipodi:nodetypes="ccccccccccccccc" />
  <path
     d="M 73.359802,41.598807 C 106.47609,91.273231 114.75516,138.18761 114.75516,155.43603 H 99.231898 C 83.708641,114.04068 41.584082,77.98802 11.266772,67.470904 l 3.71601,-5.623161 16.981666,-4.725679 z"
     id="path845"
     inkscape:connector-curvature="0"
     style="fill:#c9bff3;stroke-width:10.34883881"
     sodipodi:nodetypes="ccccccc" />
  <path
     d="M 130.27842,5.3778729 V 155.43603 h 15.52325 c 0,-41.39535 27.59726,-93.139546 41.39536,-113.837223 L 166.49934,31.249968 140.62726,10.552292 Z"
     id="path847"
     inkscape:connector-curvature="0"
     style="fill:#2900d2;stroke-width:10.34883881" />
  <path
     d="M 130.27842,5.3778729 V 155.43603 h -15.52326 c 0,-41.39535 -27.596942,-93.139546 -41.395358,-113.837223 L 94.057479,31.249968 119.92957,10.552292 Z"
     id="path849"
     inkscape:connector-curvature="0"
     style="fill:#5e40dd;stroke-width:10.34883881" />
  <path
     d="M 162.47882,150.26161 H 98.077588 c -1.552843,0 -3.041938,0.62093 -4.139949,1.72619 -1.097908,1.10628 -1.714803,2.6048 -1.714803,4.1685 -0.02018,16.12351 -4.952229,31.85166 -14.130407,45.06403 -9.178178,13.21132 -22.160795,23.27039 -37.195795,28.81945 -0.849019,0.33426 -1.608726,0.86308 -2.218583,1.5461 -0.609858,0.68199 -1.052994,1.49852 -1.294227,2.38334 -0.249924,0.85689 -0.309534,1.75931 -0.174584,2.64206 0.134845,0.88276 0.460937,1.72516 0.955198,2.46717 20.296244,28.68801 49.374618,50.69585 86.259632,65.237 1.85451,0.77823 3.8446,1.17874 5.85435,1.17874 2.00974,0 3.99982,-0.40051 5.85434,-1.17874 36.88532,-14.54115 65.96349,-36.54899 86.25964,-65.237 0.49466,-0.74201 0.82065,-1.58441 0.95519,-2.46717 0.13454,-0.88275 0.0755,-1.78517 -0.1749,-2.64206 -0.27838,-0.8662 -0.73476,-1.66408 -1.34016,-2.34195 -0.60541,-0.6768 -1.34536,-1.21804 -2.17224,-1.58749 -15.03478,-5.54906 -28.0174,-15.60813 -37.19579,-28.81945 -9.17839,-13.21237 -14.11064,-28.94052 -14.13031,-45.06403 0,-1.5637 -0.61679,-3.06222 -1.71479,-4.1685 -1.09801,-1.10526 -2.58721,-1.72619 -4.14058,-1.72619 z"
     id="path851"
     inkscape:connector-curvature="0"
     style="fill:#e8f36f;stroke:#1e1250;stroke-width:7.7616291" />
  <path
     d="m 119.76399,9.338063 c 2.88423,-2.5880376 6.63672,-4.001068 10.51443,-3.9592587 3.8777,-0.041396 7.63019,1.3712211 10.51441,3.9592587 36.10504,31.476509 82.72448,44.344254 100.97569,48.501486 2.58721,0.575396 4.99124,1.779587 6.99892,3.5066 2.00767,1.727016 3.55586,3.922831 4.50692,6.391651 0.77512,1.815703 1.17976,3.767494 1.19012,5.741017 v 79.779823 c 0,1.78206 -0.39636,42.95906 -30.55081,85.32306 -20.63144,28.90327 -50.1898,51.07566 -87.68365,65.72444 -1.88555,0.78444 -3.90875,1.18805 -5.9516,1.18805 -2.04286,0 -4.06606,-0.40361 -5.95163,-1.18805 C 86.833161,289.65736 57.274499,267.48497 36.642951,238.5817 6.4891273,196.2177 6.0923528,155.0407 6.0923528,153.25864 V 73.478817 c 0.010452,-1.973523 0.4150919,-3.925314 1.1903234,-5.741017 0.9509547,-2.46882 2.4992444,-4.664635 4.5068148,-6.391651 2.007571,-1.727013 4.412021,-2.931617 6.99923,-3.5066 C 37.039726,53.682317 83.460681,40.814572 119.76399,9.338063 Z"
     id="path853"
     inkscape:connector-curvature="0"
     style="stroke:#1e1250;stroke-width:7.7616291" />
</svg>
